<mxfile host="app.diagrams.net" agent="Mozilla/5.0 (Windows NT 10.0; Win64; x64) AppleWebKit/537.36 (KHTML, like Gecko) Chrome/136.0.0.0 Safari/537.36" version="26.2.14">
  <diagram name="Página-1" id="YhshxeGFKpBnIAXKG_Zu">
    <mxGraphModel dx="1426" dy="1936" grid="1" gridSize="10" guides="1" tooltips="1" connect="1" arrows="1" fold="1" page="1" pageScale="1" pageWidth="827" pageHeight="1169" math="0" shadow="0">
      <root>
        <mxCell id="0" />
        <mxCell id="1" parent="0" />
        <mxCell id="NtFZV9TeVk9EKYyjNwA9-2" value="Círculo" style="swimlane;fontStyle=1;align=center;verticalAlign=middle;childLayout=stackLayout;horizontal=1;startSize=29;horizontalStack=0;resizeParent=1;resizeParentMax=0;resizeLast=0;collapsible=0;marginBottom=0;html=1;whiteSpace=wrap;" vertex="1" parent="1">
          <mxGeometry x="530" y="-710" width="180" height="120" as="geometry" />
        </mxCell>
        <mxCell id="NtFZV9TeVk9EKYyjNwA9-3" value="&lt;div&gt;- radio: int&lt;/div&gt;" style="text;html=1;strokeColor=none;fillColor=none;align=center;verticalAlign=middle;spacingLeft=4;spacingRight=4;overflow=hidden;rotatable=0;points=[[0,0.5],[1,0.5]];portConstraint=eastwest;whiteSpace=wrap;" vertex="1" parent="NtFZV9TeVk9EKYyjNwA9-2">
          <mxGeometry y="29" width="180" height="25" as="geometry" />
        </mxCell>
        <mxCell id="NtFZV9TeVk9EKYyjNwA9-4" value="&lt;div&gt;+ Círculo(int)&lt;/div&gt;&lt;div&gt;+ calcularArea(): double&lt;/div&gt;&lt;div&gt;+ calcularPerimetro(): double&lt;/div&gt;&lt;div&gt;&lt;br&gt;&lt;/div&gt;" style="text;html=1;strokeColor=none;fillColor=none;align=left;verticalAlign=middle;spacingLeft=4;spacingRight=4;overflow=hidden;rotatable=0;points=[[0,0.5],[1,0.5]];portConstraint=eastwest;whiteSpace=wrap;" vertex="1" parent="NtFZV9TeVk9EKYyjNwA9-2">
          <mxGeometry y="54" width="180" height="66" as="geometry" />
        </mxCell>
        <mxCell id="NtFZV9TeVk9EKYyjNwA9-5" value="Rectángulo" style="swimlane;fontStyle=1;align=center;verticalAlign=middle;childLayout=stackLayout;horizontal=1;startSize=29;horizontalStack=0;resizeParent=1;resizeParentMax=0;resizeLast=0;collapsible=0;marginBottom=0;html=1;whiteSpace=wrap;" vertex="1" parent="1">
          <mxGeometry x="530" y="-920" width="170" height="120" as="geometry" />
        </mxCell>
        <mxCell id="NtFZV9TeVk9EKYyjNwA9-6" value="&lt;div&gt;- base: int&lt;/div&gt;&lt;div&gt;- altura: int&lt;/div&gt;&lt;div&gt;&lt;br&gt;&lt;/div&gt;" style="text;html=1;strokeColor=none;fillColor=none;align=center;verticalAlign=middle;spacingLeft=4;spacingRight=4;overflow=hidden;rotatable=0;points=[[0,0.5],[1,0.5]];portConstraint=eastwest;whiteSpace=wrap;" vertex="1" parent="NtFZV9TeVk9EKYyjNwA9-5">
          <mxGeometry y="29" width="170" height="41" as="geometry" />
        </mxCell>
        <mxCell id="NtFZV9TeVk9EKYyjNwA9-7" value="&lt;div&gt;+ Rectángulo(int, int)&lt;/div&gt;&lt;div&gt;+ calcularArea(): double&lt;/div&gt;&lt;div&gt;+ calcularPerimetro(): double&lt;/div&gt;&lt;div&gt;&lt;br&gt;&lt;/div&gt;" style="text;html=1;strokeColor=none;fillColor=none;align=left;verticalAlign=middle;spacingLeft=4;spacingRight=4;overflow=hidden;rotatable=0;points=[[0,0.5],[1,0.5]];portConstraint=eastwest;whiteSpace=wrap;" vertex="1" parent="NtFZV9TeVk9EKYyjNwA9-5">
          <mxGeometry y="70" width="170" height="50" as="geometry" />
        </mxCell>
        <mxCell id="NtFZV9TeVk9EKYyjNwA9-8" value="Cuadrado" style="swimlane;fontStyle=1;align=center;verticalAlign=middle;childLayout=stackLayout;horizontal=1;startSize=29;horizontalStack=0;resizeParent=1;resizeParentMax=0;resizeLast=0;collapsible=0;marginBottom=0;html=1;whiteSpace=wrap;" vertex="1" parent="1">
          <mxGeometry x="120" y="-920" width="170" height="120" as="geometry" />
        </mxCell>
        <mxCell id="NtFZV9TeVk9EKYyjNwA9-9" value="&lt;div&gt;- lado: int&lt;/div&gt;" style="text;html=1;strokeColor=none;fillColor=none;align=center;verticalAlign=middle;spacingLeft=4;spacingRight=4;overflow=hidden;rotatable=0;points=[[0,0.5],[1,0.5]];portConstraint=eastwest;whiteSpace=wrap;" vertex="1" parent="NtFZV9TeVk9EKYyjNwA9-8">
          <mxGeometry y="29" width="170" height="25" as="geometry" />
        </mxCell>
        <mxCell id="NtFZV9TeVk9EKYyjNwA9-10" value="&lt;div&gt;+ Cuadrado(int)&lt;/div&gt;&lt;div&gt;+ calcularArea(): double&lt;/div&gt;&lt;div&gt;+ calcularPerimetro(): double&lt;/div&gt;&lt;div&gt;&lt;br&gt;&lt;/div&gt;" style="text;html=1;strokeColor=none;fillColor=none;align=left;verticalAlign=middle;spacingLeft=4;spacingRight=4;overflow=hidden;rotatable=0;points=[[0,0.5],[1,0.5]];portConstraint=eastwest;whiteSpace=wrap;" vertex="1" parent="NtFZV9TeVk9EKYyjNwA9-8">
          <mxGeometry y="54" width="170" height="66" as="geometry" />
        </mxCell>
        <mxCell id="NtFZV9TeVk9EKYyjNwA9-11" value="TriánguloRectángulo" style="swimlane;fontStyle=1;align=center;verticalAlign=middle;childLayout=stackLayout;horizontal=1;startSize=29;horizontalStack=0;resizeParent=1;resizeParentMax=0;resizeLast=0;collapsible=0;marginBottom=0;html=1;whiteSpace=wrap;" vertex="1" parent="1">
          <mxGeometry x="100" y="-710" width="190" height="160" as="geometry" />
        </mxCell>
        <mxCell id="NtFZV9TeVk9EKYyjNwA9-12" value="&lt;div&gt;- base: int&lt;/div&gt;&lt;div&gt;- altura: int&lt;/div&gt;&lt;div&gt;&lt;br&gt;&lt;/div&gt;" style="text;html=1;strokeColor=none;fillColor=none;align=center;verticalAlign=middle;spacingLeft=4;spacingRight=4;overflow=hidden;rotatable=0;points=[[0,0.5],[1,0.5]];portConstraint=eastwest;whiteSpace=wrap;" vertex="1" parent="NtFZV9TeVk9EKYyjNwA9-11">
          <mxGeometry y="29" width="190" height="41" as="geometry" />
        </mxCell>
        <mxCell id="NtFZV9TeVk9EKYyjNwA9-13" value="&lt;div&gt;+ TriánguloRectángulo(int, int)&lt;/div&gt;&lt;div&gt;+ calcularArea(): double&lt;/div&gt;&lt;div&gt;+ calcularPerimetro(): double&lt;/div&gt;&lt;div&gt;+ calcularHipotenusa(): double&lt;/div&gt;&lt;div&gt;+ determinarTipoTriangulo(): void&lt;/div&gt;&lt;div&gt;&lt;br&gt;&lt;/div&gt;" style="text;html=1;strokeColor=none;fillColor=none;align=left;verticalAlign=middle;spacingLeft=4;spacingRight=4;overflow=hidden;rotatable=0;points=[[0,0.5],[1,0.5]];portConstraint=eastwest;whiteSpace=wrap;" vertex="1" parent="NtFZV9TeVk9EKYyjNwA9-11">
          <mxGeometry y="70" width="190" height="90" as="geometry" />
        </mxCell>
        <mxCell id="NtFZV9TeVk9EKYyjNwA9-14" value="PruebaFiguras" style="swimlane;fontStyle=1;align=center;verticalAlign=middle;childLayout=stackLayout;horizontal=1;startSize=29;horizontalStack=0;resizeParent=1;resizeParentMax=0;resizeLast=0;collapsible=0;marginBottom=0;html=1;whiteSpace=wrap;" vertex="1" parent="1">
          <mxGeometry x="344" y="-780" width="140" height="54" as="geometry" />
        </mxCell>
        <mxCell id="NtFZV9TeVk9EKYyjNwA9-15" value="&lt;div&gt;+ main(String[]): void&lt;/div&gt;" style="text;html=1;strokeColor=none;fillColor=none;align=center;verticalAlign=middle;spacingLeft=4;spacingRight=4;overflow=hidden;rotatable=0;points=[[0,0.5],[1,0.5]];portConstraint=eastwest;whiteSpace=wrap;" vertex="1" parent="NtFZV9TeVk9EKYyjNwA9-14">
          <mxGeometry y="29" width="140" height="25" as="geometry" />
        </mxCell>
        <mxCell id="NtFZV9TeVk9EKYyjNwA9-17" value="" style="endArrow=none;html=1;rounded=0;entryX=-0.006;entryY=0.96;entryDx=0;entryDy=0;entryPerimeter=0;" edge="1" parent="1" target="NtFZV9TeVk9EKYyjNwA9-7">
          <mxGeometry width="50" height="50" relative="1" as="geometry">
            <mxPoint x="484" y="-780" as="sourcePoint" />
            <mxPoint x="534" y="-830" as="targetPoint" />
          </mxGeometry>
        </mxCell>
        <mxCell id="NtFZV9TeVk9EKYyjNwA9-18" value="" style="endArrow=none;html=1;rounded=0;entryX=1.006;entryY=1.045;entryDx=0;entryDy=0;entryPerimeter=0;" edge="1" parent="1" target="NtFZV9TeVk9EKYyjNwA9-10">
          <mxGeometry width="50" height="50" relative="1" as="geometry">
            <mxPoint x="344" y="-780" as="sourcePoint" />
            <mxPoint x="394" y="-830" as="targetPoint" />
          </mxGeometry>
        </mxCell>
        <mxCell id="NtFZV9TeVk9EKYyjNwA9-19" value="" style="endArrow=none;html=1;rounded=0;exitX=1;exitY=0;exitDx=0;exitDy=0;" edge="1" parent="1" source="NtFZV9TeVk9EKYyjNwA9-11">
          <mxGeometry width="50" height="50" relative="1" as="geometry">
            <mxPoint x="294" y="-676" as="sourcePoint" />
            <mxPoint x="344" y="-726" as="targetPoint" />
          </mxGeometry>
        </mxCell>
        <mxCell id="NtFZV9TeVk9EKYyjNwA9-20" value="" style="endArrow=none;html=1;rounded=0;exitX=0;exitY=0;exitDx=0;exitDy=0;" edge="1" parent="1" source="NtFZV9TeVk9EKYyjNwA9-2">
          <mxGeometry width="50" height="50" relative="1" as="geometry">
            <mxPoint x="434" y="-676" as="sourcePoint" />
            <mxPoint x="484" y="-726" as="targetPoint" />
          </mxGeometry>
        </mxCell>
      </root>
    </mxGraphModel>
  </diagram>
</mxfile>
